<?xml version="1.0" encoding="UTF-8"?>
<svg id="b" data-name="Layer 2" xmlns="http://www.w3.org/2000/svg" viewBox="0 0 260 260">
  <defs>
    <style>
      .d {
        fill: none;
      }

      .d, .e, .f {
        stroke-width: 0px;
      }

      .f {
        fill: #fff;
      }
    </style>
  </defs>
  <g id="c" data-name="Layer 3">
    <g>
      <path class="d" d="m43.87,76.68c4.57-1.14,9.13-4.57,18.26-9.13,9.13-4.57,20.55-1.14,20.55-1.14,0,0,10.27,3.42,15.98,4.57,5.71,1.14,7.99,5.71,9.13,7.99,1.14,2.28,12.56,10.27,12.56,10.27,0,0,5.71-3.42,9.32-3.74,3.61-.31,6.66,8.3,6.66,8.3,0,0,1.14-6.85,3.42-7.99,2.28-1.14,12.56,1.14,15.98,2.28,3.42,1.14,10.27,5.71,10.27,5.71l19.41,20.55s9.13,2.28,11.42,3.42c2.28,1.14,9.13,27.4,9.13,27.4l7.41,8.56,4.96,2.85h3.61s2.28,9.13,5.71,10.27c1.57.52,10.96,8.55,20.66,17.07,7.5-16.43,11.69-34.69,11.69-53.94C260,58.2,201.8,0,130,0,76.54,0,30.62,32.27,10.65,78.4c6.71,2.64,16.72,7.42,18.37,7.42,2.28,0,10.27-7.99,14.84-9.13Z"/>
      <path class="d" d="m224.23,181.7c0-2.28-2.28-9.13-5.71-9.13s-6.85,6.85-7.99,9.7c-1.14,2.85,0,24.54,0,24.54,0,0,1.43,1.43,3.14,2.85s3.71,2.85,4.85,2.85c2.28,0,3.42-9.13,3.42-9.13,0,0,2.28-19.41,2.28-21.69Z"/>
      <polygon class="d" points="78.29 140.59 78.35 139.63 78.93 141.07 80.63 103.95 78 104.3 77.17 136.71 78.24 139.36 78.29 140.59"/>
      <path class="e" d="m248.31,183.94c-9.7-8.52-19.09-16.55-20.66-17.07-3.42-1.14-5.71-10.27-5.71-10.27h-3.61l-4.96-2.85-7.41-8.56s-6.85-26.26-9.13-27.4c-2.28-1.14-11.42-3.42-11.42-3.42l-19.41-20.55s-6.85-4.57-10.27-5.71c-3.42-1.14-13.7-3.42-15.98-2.28-2.28,1.14-3.42,7.99-3.42,7.99,0,0-3.04-8.61-6.66-8.3-3.61.31-9.32,3.74-9.32,3.74,0,0-11.42-7.99-12.56-10.27-1.14-2.28-3.42-6.85-9.13-7.99-5.71-1.14-15.98-4.57-15.98-4.57,0,0-11.42-3.42-20.55,1.14-9.13,4.57-13.7,7.99-18.26,9.13-4.57,1.14-12.56,9.13-14.84,9.13-1.65,0-11.66-4.78-18.37-7.42C3.8,94.22,0,111.66,0,130c0,71.8,58.2,130,130,130,52.55,0,97.82-31.19,118.31-76.06Zm-183.35-3.81l-1.46-16.49-3.59-2.77-.32-13.5,4.86,11.09-.32-13.69,2.87,4.48.73,30.81-2.76.08Zm7.86-51.87l-.15,19.13-3.6,2.99,1-30.36h.03s2.78-.21,2.78-.21l-.07,8.44Zm115.45-9.53c1.71.19,5.71-.38,7.99,3.04,2.28,3.42,7.99,28.54,7.99,28.54l-1.14,5.71-4.57-5.71c-2.85-.57-6.85,9.13-9.13,6.85-2.28-2.28-4-26.83-4-29.11s1.14-9.51,2.85-9.32Zm-48.54,13.89v7.04l-2.64,1.29,2.64-8.33Zm-6.26,1.95h3.61l-5.43,6.37,1.81-6.37Zm-28.64-34.29c1.07-1.17,3.16-5.79,5.55-5.85,2.39-.06,6.4-1.31,8.64-.23,2.23,1.08.42,15.98-.62,18.29l-.77,5.54c-.77,5.54-9.74,14.15-9.74,14.15,0,0-.36-13.69-.42-15.98-.06-2.28-3.7-14.75-2.62-15.92Zm-26.84,4.02l2.63-.35-1.7,37.13-.58-1.44-.06.96-.05-1.23-1.07-2.65.83-32.41Zm16.75,41.42l-1.5,15.01-3.75,4.67-.12-4.41-4.1,5.85,8.76,20.52-4.41,2.97-4.83-5.96-.3-11.6-6.42-28.38,3.93-.1-1,6.31,3.1,7.34.77-.91-1.08-2.35,2.19-21.36v.05s-3.24,5.13-3.24,5.13l2.38-37.46,1.01-10.49,3.28-1.42,2.59,9.45-1.81,20.22-1.51,5.21,2.04-.17-3.65,30.6,2.07-2.45v-.45s3.14-27.49,3.14-27.49l3.03-.08,2.01-18.89h.25s5.14-.14,5.14-.14l-1.3,8.34-2.87,28.5-3.77,4.67-.02-.69Zm8.56-9.43l-2.1,9.19-.56,27.61-4.33,1.06,1.34-10.31,2.03-27.46,3.63-.09Zm13.01,66.91c-4.39-.58-15.16-4.62-15.16-4.62,0,0-7.12-10.09-4.86-11.29,2.25-1.2,16.07,3,16.68,4.7,0,0,7.61,7.22,11.07,8.27,3.45,1.05-3.33,3.51-7.73,2.93Zm11.96-49.96l-2.15-3.49,3.67-6.72,1.86,1.16-3.38,9.05Zm22.32,47.2l-4.19,1.05-2.66-2.09,1.71-.93,6.63-1.54-1.49,3.52Zm3.42-21.59c-2,2-2.57,5.99-4.57,7.99-1.34,1.34-5.09,1.32-8.04.87v10.76l-3.38-2.5v-8.74l.65-.15c-.23-.08-.48-.16-.65-.24-2-1,1.14-15.26,1.14-19.41,0-4.57,1.6-11.64,1.6-13.64s-9.67-2.77-9.59-5.77c.08-3,8.11-3.76,10.27-6.85,1.26-1.79,2.21-6.89,3.06-11.42h-1.92l1.9-4.57h.92c.28-1.27.57-2.31.85-2.9.93-1.94,1.92-1.51,2.9-.19-.17-2.46-.25-4.64-.25-4.64l4.31-4.15-1.88,4.62-.36,6.76-.08.43c.85,1.71,1.66,3.45,2.38,4.17.68.68,2.86,3.77,5.41,7.51.6.14,1.17.46,1.6,1.06.74,1.04,1.85,1.15,2.7,3.14.19.45.82,1.57,1,2,.15.37.27.77.38,1.18l3.46-.25-.32,6.04c1.49,2.26,2.49,3.77,2.49,3.77,0,0-3.09,5.91-2.28,9.13,1.84,7.34-.68,16.65-3.42,15.98-2.92-.71-8.27-2-10.27,0Zm45.09,41.67l-6.28-11.03-19.27-5.52-12.12-1.72,3.61-6.65h8.5l3.86,6.65,20.55,5.71,8.18,15.41-7.04-2.85Zm19.41-7.99c-1.14,0-3.14-1.43-4.85-2.85s-3.14-2.85-3.14-2.85c0,0-1.14-21.69,0-24.54,1.14-2.85,4.57-9.7,7.99-9.7s5.71,6.85,5.71,9.13-2.28,21.69-2.28,21.69c0,0-1.14,9.13-3.42,9.13Z"/>
      <path class="f" d="m167.72,162.87c-.81-3.22,2.28-9.13,2.28-9.13,0,0-.99-1.51-2.49-3.77l-.2,3.77.94,3.28-5.92-1.83-1.74-4.43.98-5.32-1.28-1.01-4.3-6.43s.91-1.61,2.7-1.2c-2.56-3.74-4.73-6.83-5.41-7.51-.72-.72-1.53-2.46-2.38-4.17l-.72,3.68c-.48-.71-.8-3.89-1-6.7-.98-1.32-1.96-1.75-2.9.19-.29.6-.57,1.63-.85,2.9h.98v4.57h-1.89c-.85,4.53-1.8,9.62-3.06,11.42-2.17,3.09-10.19,3.85-10.27,6.85-.08,3,9.59,3.77,9.59,5.77s-1.6,9.07-1.6,13.64c0,4.14-3.14,18.41-1.14,19.41.16.08.41.16.65.24l2.73-.62v1.25c2.95.45,6.7.47,8.04-.87,2-2,2.57-5.99,4.57-7.99,2-2,7.35-.71,10.27,0,2.75.67,5.26-8.64,3.42-15.98Z"/>
      <path class="f" d="m107.88,132.18s8.97-8.62,9.74-14.15l.77-5.54c1.04-2.31,2.86-17.2.62-18.29-2.23-1.08-6.25.16-8.64.23-2.39.06-4.47,4.68-5.55,5.85-1.07,1.17,2.56,13.64,2.62,15.92.06,2.28.42,15.98.42,15.98Z"/>
      <polygon class="f" points="101.41 113.25 102.71 104.9 97.57 105.04 102.12 104.92 100.92 113.26 98.28 141.75 94.77 146.41 98.54 141.75 101.41 113.25"/>
      <polygon class="f" points="64.12 144.75 64.45 158.44 59.58 147.36 59.9 160.86 63.49 163.63 64.96 180.13 67.72 180.05 66.99 149.24 64.12 144.75"/>
      <path class="f" d="m198.54,150.31l4.57,5.71,1.14-5.71s-5.71-25.11-7.99-28.54c-2.28-3.42-6.28-2.85-7.99-3.04-1.71-.19-2.85,7.04-2.85,9.32s1.71,26.83,4,29.11c2.28,2.28,6.28-7.42,9.13-6.85Z"/>
      <path class="f" d="m124.05,200.27c-3.45-1.05-11.07-8.27-11.07-8.27-.62-1.7-14.43-5.9-16.68-4.7-2.25,1.2,4.86,11.29,4.86,11.29,0,0,10.76,4.04,15.16,4.62,4.39.58,11.18-1.88,7.73-2.93Z"/>
      <polygon class="f" points="100.92 113.26 102.12 104.92 97.57 105.04 97.32 105.05 95.32 123.94 97.39 123.89 96.1 132.23 94.75 145.72 94.77 146.41 98.28 141.75 100.92 113.26"/>
      <polygon class="f" points="97.65 163.85 96.31 174.16 100.64 173.09 101.2 145.48 103.31 136.29 99.68 136.39 97.65 163.85"/>
      <polygon class="f" points="97.39 123.89 95.32 123.94 92.29 124.02 89.14 151.51 89.15 151.96 90.03 150.91 91.67 157.72 89.38 160.98 89.5 165.39 93.25 160.73 94.75 145.72 96.1 132.23 97.39 123.89"/>
      <polygon class="f" points="88.69 123.99 90.2 118.77 92.01 98.55 89.42 89.11 86.14 90.52 85.13 101.02 82.75 138.48 85.98 133.35 85.99 133.3 86.93 124.13 88.69 123.99"/>
      <polygon class="f" points="90.72 123.81 88.69 123.99 86.93 124.13 85.99 133.3 83.8 154.66 84.88 157.01 87.08 154.41 90.72 123.81"/>
      <polygon class="f" points="70.06 120.02 69.06 150.38 72.66 147.39 72.81 128.26 72.88 119.81 70.1 120.02 70.06 120.02"/>
      <polygon class="f" points="90.03 150.91 89.15 151.96 87.08 154.41 84.88 157.01 84.11 157.92 81 150.58 82 144.27 78.08 144.37 84.49 172.75 84.8 184.36 89.63 190.32 94.04 187.35 85.29 166.83 89.38 160.98 91.67 157.72 90.03 150.91"/>
      <polygon class="f" points="177.42 202.25 173.56 195.6 165.06 195.6 161.44 202.25 173.56 203.97 192.83 209.49 199.11 220.52 206.15 223.37 197.97 207.96 177.42 202.25"/>
      <path class="e" d="m150.91,125.13l.08-.43.36-6.76,1.88-4.62-4.31,4.15s.08,2.18.25,4.64c.2,2.81.52,5.99,1,6.7l.72-3.68Z"/>
      <polygon class="e" points="138.69 187.08 138.04 187.23 138.04 195.97 141.42 198.47 141.42 187.71 141.42 186.46 138.69 187.08"/>
      <path class="e" d="m164.87,148.03l-3.29-2.59-.98,5.32,1.74,4.43,5.92,1.83-.94-3.28.2-3.77.32-6.04-3.46.25c.47,1.86.49,3.85.49,3.85Z"/>
      <polygon class="e" points="146.41 125.2 145.43 125.2 144.51 125.2 142.61 129.76 144.52 129.76 146.41 129.76 146.41 125.2"/>
      <polygon class="e" points="143.75 199.4 146.41 201.49 150.6 200.44 152.09 196.92 145.46 198.47 143.75 199.4"/>
      <polygon class="e" points="139.73 139.66 139.73 132.62 137.09 140.95 139.73 139.66"/>
      <polygon class="f" points="129.8 143.03 126.12 149.75 128.28 153.24 131.66 144.19 129.8 143.03"/>
      <polygon class="f" points="133.47 134.57 131.66 140.95 137.09 134.57 133.47 134.57"/>
      <path class="e" d="m156,138l4.3,6.43,1.28,1.01,3.29,2.59s-.02-2-.49-3.85c-.1-.41-.23-.81-.38-1.18-.18-.43-.81-1.55-1-2-.85-1.99-1.96-2.1-2.7-3.14-.43-.6-1-.92-1.6-1.06-1.79-.41-2.7,1.2-2.7,1.2Z"/>
    </g>
  </g>
</svg>